<svg xmlns="http://www.w3.org/2000/svg" viewBox="0 0 1536 1024" width="1536" height="1024" role="img" aria-labelledby="title desc">
  <title id="title">Desktop app development</title>
  <desc id="desc">A desktop project dashboard on a laptop beside a code window, plant, coffee cup, and operating system symbols.</desc>
  <defs>
    <linearGradient id="bg" x1="0" y1="0" x2="1" y2="1"><stop stop-color="#071014"/><stop offset=".6" stop-color="#102c38"/><stop offset="1" stop-color="#19312e"/></linearGradient>
    <linearGradient id="desk" x1="0" y1="0" x2="0" y2="1"><stop stop-color="#263337"/><stop offset="1" stop-color="#090e11"/></linearGradient>
    <linearGradient id="screen" x1="0" y1="0" x2="1" y2="1"><stop stop-color="#162d47"/><stop offset="1" stop-color="#091421"/></linearGradient>
    <linearGradient id="cyan" x1="0" y1="0" x2="1" y2="0"><stop stop-color="#21e5bf"/><stop offset="1" stop-color="#73d9ea"/></linearGradient>
    <filter id="shadow"><feDropShadow dx="0" dy="20" stdDeviation="22" flood-color="#000" flood-opacity=".6"/></filter>
  </defs>
  <rect width="1536" height="1024" fill="url(#bg)"/>
  <circle cx="1420" cy="80" r="310" fill="#82dff2" opacity=".08"/>
  <path d="M0 710 C290 600 550 780 800 680 S1250 590 1536 720 V1024 H0Z" fill="url(#desk)"/>
  <g opacity=".8" fill="#35e2bb"><circle cx="1320" cy="55" r="4"/><circle cx="1355" cy="55" r="4"/><circle cx="1390" cy="55" r="4"/><circle cx="1425" cy="55" r="4"/><circle cx="1460" cy="55" r="4"/><circle cx="1320" cy="82" r="4"/><circle cx="1355" cy="82" r="4"/><circle cx="1390" cy="82" r="4"/><circle cx="1425" cy="82" r="4"/><circle cx="1460" cy="82" r="4"/></g>
  <g filter="url(#shadow)">
    <rect x="255" y="220" width="410" height="300" rx="18" fill="#0b151b" stroke="#35e2bb" stroke-opacity=".7" stroke-width="4"/>
    <rect x="285" y="270" width="350" height="210" rx="10" fill="#0f2029"/>
    <circle cx="300" cy="245" r="6" fill="#eb786e"/><circle cx="322" cy="245" r="6" fill="#e8c35d"/><circle cx="344" cy="245" r="6" fill="#6ddc9b"/>
    <path d="M315 315 H410 M315 345 H530 M315 375 H460 M315 405 H550 M315 435 H420" stroke-linecap="round" stroke-width="12"/>
    <path d="M315 315 H365" stroke="#75d8ed"/><path d="M370 315 H410" stroke="#f3b45e"/><path d="M315 345 H405" stroke="#37dfbc"/><path d="M415 345 H530" stroke="#b58bff"/><path d="M315 375 H460" stroke="#75d8ed"/><path d="M315 405 H370" stroke="#f3b45e"/><path d="M380 405 H550" stroke="#37dfbc"/><path d="M315 435 H420" stroke="#b58bff"/>
  </g>
  <g filter="url(#shadow)">
    <path d="M560 490 L1270 490 L1360 800 L480 800Z" fill="#111a1e" stroke="#72888b" stroke-width="8"/>
    <rect x="610" y="285" width="600" height="435" rx="20" fill="#101c22" stroke="#65797d" stroke-width="10"/>
    <rect x="638" y="318" width="544" height="370" rx="8" fill="url(#screen)"/>
    <rect x="638" y="318" width="544" height="42" rx="8" fill="#09131b"/><circle cx="660" cy="339" r="6" fill="#eb786e"/><circle cx="682" cy="339" r="6" fill="#e8c35d"/><circle cx="704" cy="339" r="6" fill="#6ddc9b"/>
    <rect x="660" y="390" width="108" height="260" rx="8" fill="#0d2333"/><text x="685" y="425" fill="#75d8ed" font-family="Sora, sans-serif" font-size="18">Dashboard</text><text x="685" y="465" fill="#8ba8b1" font-family="Sora, sans-serif" font-size="16">Projects</text><text x="685" y="500" fill="#8ba8b1" font-family="Sora, sans-serif" font-size="16">Team</text><text x="685" y="535" fill="#8ba8b1" font-family="Sora, sans-serif" font-size="16">Settings</text>
    <text x="805" y="420" fill="#f6f1e7" font-family="Sora, sans-serif" font-size="23">Project Dashboard</text>
    <rect x="805" y="450" width="105" height="78" rx="10" fill="#183b56"/><rect x="925" y="450" width="105" height="78" rx="10" fill="#392762"/><rect x="1045" y="450" width="105" height="78" rx="10" fill="#124b4b"/>
    <text x="822" y="480" fill="#75d8ed" font-family="Sora, sans-serif" font-size="15">Total Projects</text><text x="822" y="512" fill="#f6f1e7" font-family="Sora, sans-serif" font-size="27">12</text><text x="942" y="480" fill="#c799ff" font-family="Sora, sans-serif" font-size="15">In Progress</text><text x="942" y="512" fill="#f6f1e7" font-family="Sora, sans-serif" font-size="27">5</text><text x="1062" y="480" fill="#5be0b6" font-family="Sora, sans-serif" font-size="15">Completed</text><text x="1062" y="512" fill="#f6f1e7" font-family="Sora, sans-serif" font-size="27">7</text>
    <rect x="805" y="555" width="220" height="95" rx="10" fill="#112b3b"/><text x="825" y="585" fill="#f6f1e7" font-family="Sora, sans-serif" font-size="17">Recent activity</text><path d="M830 615 H960 M830 635 H930" stroke="#35e2bb" stroke-width="9" stroke-linecap="round"/>
    <rect x="1045" y="555" width="105" height="95" rx="10" fill="#112b3b"/><circle cx="1097" cy="605" r="30" fill="none" stroke="#1fd9c0" stroke-width="10"/><path d="M1097 575 A30 30 0 1 1 1072 620" fill="none" stroke="#e1bd54" stroke-width="10"/><text x="1097" y="610" fill="#f6f1e7" font-family="Sora, sans-serif" font-size="14" text-anchor="middle">75%</text>
    <path d="M570 800 H1280" stroke="#a6b7b7" stroke-width="8" stroke-linecap="round"/>
  </g>
  <g filter="url(#shadow)">
    <path d="M190 750 Q245 700 300 750 V870 H190Z" fill="#9c642e"/><path d="M205 760 Q245 720 285 760" fill="none" stroke="#ddad60" stroke-width="8"/>
    <path d="M238 720 Q205 640 250 580 M255 715 Q300 620 280 570 M250 700 Q240 600 215 550" fill="none" stroke="#45bf8b" stroke-width="18" stroke-linecap="round"/>
    <path d="M260 670 Q320 610 335 565 M260 680 Q205 620 180 580" fill="none" stroke="#74dc9a" stroke-width="14" stroke-linecap="round"/>
    <ellipse cx="250" cy="870" rx="95" ry="20" fill="#080d0e"/>
  </g>
  <g transform="rotate(-5 420 730)" filter="url(#shadow)"><path d="M350 660 H475 Q520 660 525 710 V805 H350Z" fill="#171d20"/><path d="M380 690 H495 V770 H380Z" fill="#b66e3d"/><text x="402" y="743" fill="#f6f1e7" font-family="Georgia, serif" font-size="14">Digi Dracuaa</text></g>
  <g fill="#f6f1e7" opacity=".95"><rect x="1260" y="190" width="110" height="110" rx="20" fill="#183044" stroke="#75d8ed" stroke-width="3"/><rect x="1390" y="230" width="110" height="110" rx="20" fill="#1b2634" stroke="#c2d5d9" stroke-width="3"/></g>
  <text x="1315" y="260" fill="#75d8ed" font-family="Sora, sans-serif" font-size="42" text-anchor="middle">▣</text><text x="1445" y="298" fill="#17242a" font-family="Georgia, serif" font-size="43" text-anchor="middle">●</text>
  <text x="190" y="950" fill="#f6f1e7" font-family="Sora, sans-serif" font-size="25" letter-spacing="4" opacity=".8">RELIABLE TOOLS / REAL TEAMS</text>
</svg>
